<svg xmlns="http://www.w3.org/2000/svg" viewBox="0 0 400 400"><g fill-rule="evenodd"><path fill="#ffffff" d="M0 200.59C0 351.29.1 392.8.49 392.8c.26 0 14.57-14.09 31.8-31.3 33.92-33.92 32.04-31.78 30.61-34.95-1-2.23-1.3-247.56-.3-251.46.33-1.3.6-2.74.6-3.22 0-.81-60.7-62.11-62.5-63.1-.67-.38-.7 8.87-.7 191.82M368.23 41.17l-31.18 31.18.48 3.12c.8 5.23.67 246.4-.13 249.47-.33 1.26-.6 2.7-.6 3.18 0 .83 62.09 63.48 62.9 63.48.17 0 .3-85.86.3-190.8 0-104.94-.13-190.8-.3-190.8-.17 0-14.33 14.03-31.47 31.17M75.96 74.11c-3.04 2.03-2.76-10.7-2.76 126.13v122.44l.9 1.36c2.04 3.04-10.69 2.76 126.1 2.76 137.84 0 123.84.32 125.8-2.9.8-1.29.8-2.27.8-123.94V77.32l-.9-1.36c-2.04-3.04 10.7-2.76-126.14-2.76H77.32l-1.36.9m162.36 87.98c.37.37.48 8.29.48 33.21v32.73l-1.03.39c-.56.21-2.89.39-5.17.39s-4.61-.18-5.17-.39l-1.03-.39v-32.73c0-24.92.11-32.84.48-33.21.67-.67 10.77-.67 11.44 0m-116.4 4c.35.35.48 3.61.48 12.17 0 10.1.09 11.78.63 12.32.82.82 23.28.96 24.09.15.35-.35.48-3.52.48-11.77 0-6.45.17-11.74.4-12.33l.39-1.04 6.7.11 6.71.11.1 30.8c.05 18.94-.06 31.03-.29 31.4-.56.89-11.85 1.11-13.01.26-.76-.57-.8-1.13-.91-12.73-.1-10.76-.19-12.19-.78-12.63-1.28-.96-22.72-.7-23.71.3-.76.76-.8 1.34-.8 12.5-.01 6.67-.18 11.96-.4 12.3-.5.82-12.47.89-13.28.08-.66-.66-.98-59.73-.34-61.43l.4-1.05h6.33c4.39 0 6.48.15 6.81.48m79.81 16.15c9.6 2.5 14.91 9.64 15.72 21.18.38 5.37 1.67 4.99-16.86 4.99-18.03 0-17.31-.24-15.34 5.05 2.07 5.51 7.28 7.94 13.97 6.5 2.03-.43 3.08-1.26 6.27-4.93.88-1.02 8.58-1.58 10.68-.78 3 1.16-2.93 10.32-8.27 12.76-15.43 7.05-32.98-.34-36.1-15.2-4.03-19.22 11.32-34.39 29.93-29.57m82.71.15c17.3 5.38 18.86 37.38 2.22 45.25-6.83 3.24-16.14 2.03-20.7-2.67-2.62-2.7-2.75-2.25-2.75 9.46 0 6.48-.14 9.16-.49 9.5-.91.91-10.56.64-11.53-.33-1.09-1.09-1.08-60.11.01-60.8.9-.57 10.93-.5 11.52.09.26.26.48 1.03.48 1.7.02 3.4.58 3.64 3.14 1.36 4.84-4.3 11.5-5.61 18.1-3.56m-91.5 8.06a10.1 10.1 0 0 0-7.52 6.46c-1.31 3.42-1.67 3.28 8.94 3.4 10.45.13 10.67.08 10.24-2.25-1.05-5.57-5.83-8.7-11.67-7.61m77.82 1.29c-6.48 2.42-9.7 11.6-7.02 20 3.32 10.45 17.63 10.51 20.77.1 3.6-11.97-4.36-23.61-13.75-20.1"/><path fill="#000000" d="M226.88 162.08c-.37.37-.48 8.29-.48 33.21v32.73l1.03.39c.56.21 2.89.39 5.17.39s4.61-.18 5.17-.39l1.03-.39v-32.73c0-24.92-.11-32.84-.48-33.21-.67-.67-10.77-.67-11.44 0m-118.5 4.57c-.64 1.7-.32 60.77.34 61.43.81.81 12.77.74 13.29-.08.21-.34.38-5.63.38-12.3.01-11.16.05-11.74.81-12.5 1-1 22.43-1.26 23.71-.3.6.44.68 1.87.78 12.63.1 11.6.15 12.16.91 12.73 1.16.85 12.45.63 13.01-.26.23-.37.34-12.46.28-31.4l-.09-30.8-6.7-.11-6.71-.1-.4 1.03c-.22.59-.39 5.88-.39 12.33 0 8.25-.13 11.42-.48 11.77-.81.81-23.27.67-24.1-.15-.53-.54-.62-2.22-.62-12.32 0-8.56-.13-11.82-.48-12.17-.33-.33-2.42-.48-6.81-.48h-6.33l-.4 1.05m81.82 15.16c-25.39 4.68-25.51 42.64-.16 47.24 8.4 1.53 17.34-.53 22.16-5.08 3.5-3.32 5.83-9.01 3.97-9.73-2.1-.8-9.8-.24-10.68.78-3.19 3.67-4.24 4.5-6.27 4.94-6.7 1.43-11.9-1-13.97-6.51-1.97-5.29-2.7-5.05 15.34-5.05 18.53 0 17.24.38 16.86-4.99-1.1-15.65-12.12-24.39-27.25-21.6m85-.17a19.9 19.9 0 0 0-8.86 4.3c-2.56 2.28-3.12 2.03-3.13-1.36 0-.67-.23-1.44-.49-1.7-.59-.59-10.61-.66-11.52-.09-1.09.69-1.1 59.71 0 60.8.96.97 10.6 1.24 11.52.33.34-.34.48-3.02.48-9.5.01-11.7.14-12.16 2.76-9.46 9.67 9.98 27.75 3.42 31.4-11.39 4.52-18.38-6.75-34.62-22.16-31.93m-76.4 9.25c3.66 1.1 7.47 7.39 5.48 9.04-1.08.9-19.23.46-19.41-.47-1.07-5.54 7.16-10.6 13.93-8.57m80.26 1.44c7.61 3.88 8.42 20.74 1.22 25.58-5.91 3.97-14.32.83-16.55-6.17-4.03-12.67 5.32-24.52 15.33-19.41"/><path fill="#000000" d="M0 3.91v3.91l31.41 31.4C48.7 56.47 62.93 70.98 63.05 71.46c.12.47-.07 2.1-.43 3.6-1.04 4.36-.77 249.16.28 251.48 1.43 3.16 3.24 1.08-30 34.36-16.88 16.9-31.2 31.03-31.8 31.4-1.07.64-1.1.77-1.1 4.18V400h400v-7.82l-31.6-31.58c-22.86-22.85-31.6-31.83-31.6-32.48 0-.48.27-1.92.6-3.19.8-3.07.93-244.23.13-249.46l-.48-3.13 31.48-31.46L400 9.4V0H0v3.91m323.6 70c.76.38 1.8 1.3 2.3 2.05l.9 1.36v122.64c0 121.67 0 122.65-.8 123.94-1.96 3.22 12.04 2.9-125.8 2.9-136.79 0-124.06.28-126.1-2.76l-.9-1.36V200.24c0-136.84-.28-124.1 2.76-126.13l1.36-.91h122.44c115.77 0 122.52.04 123.83.7"/></g></svg>